REM DIRINDEX 1\2\6,1\2\7,1\2\8,1\3\9,1\3\10,1\3\11,1\4\12,1\4\13,1\4\14,1\5\15,1\5\16,1\5\17,1\5\18
REM DIRNAME folder01,folder02,folder03,folder04,folder05,folder06,folder07,folder08,folder09,folder10,folder11,folder12,folder13,folder14,folder15,folder16,folder17,folder18
TITLE ""
FILE "" MP3
  TRACK 01 AUDIO
    TITLE "16:cjc019_5533"
    INDEX 01 00:00:00
  TRACK 02 AUDIO
    TITLE "0:"
    INDEX 01 00:01:28
  TRACK 03 AUDIO
    TITLE "18:cjc019_5534"
    INDEX 01 00:02:06
  TRACK 04 AUDIO
    TITLE "0:"
    INDEX 01 00:04:09
  TRACK 05 AUDIO
    TITLE "17:cjc019_5535"
    INDEX 01 00:04:66
  TRACK 06 AUDIO
    TITLE "0:"
    INDEX 01 00:06:28
  TRACK 07 AUDIO
    TITLE "16:cjc019_5536"
    INDEX 01 00:08:13
  TRACK 08 AUDIO
    TITLE "0:"
    INDEX 01 00:09:40
  TRACK 09 AUDIO
    TITLE "18:cjc019_5537"
    INDEX 01 00:10:19
  TRACK 10 AUDIO
    TITLE "0:"
    INDEX 01 00:11:44
  TRACK 11 AUDIO
    TITLE "17:cjc019_5538"
    INDEX 01 00:12:18
  TRACK 12 AUDIO
    TITLE "0:"
    INDEX 01 00:13:51
  TRACK 13 AUDIO
    TITLE "16:cjc019_5539"
    INDEX 01 00:15:36
  TRACK 14 AUDIO
    TITLE "0:"
    INDEX 01 00:16:57
  TRACK 15 AUDIO
    TITLE "18:cjc019_5540"
    INDEX 01 00:17:37
  TRACK 16 AUDIO
    TITLE "0:"
    INDEX 01 00:19:07
  TRACK 17 AUDIO
    TITLE "17:cjc019_5541"
    INDEX 01 00:19:63
  TRACK 18 AUDIO
    TITLE "0:"
    INDEX 01 00:21:11
  TRACK 19 AUDIO
    TITLE "16:cjc019_5542"
    INDEX 01 00:22:66
  TRACK 20 AUDIO
    TITLE "0:"
    INDEX 01 00:24:18
  TRACK 21 AUDIO
    TITLE "18:cjc019_5543"
    INDEX 01 00:25:03
  TRACK 22 AUDIO
    TITLE "0:"
    INDEX 01 00:29:64
  TRACK 23 AUDIO
    TITLE "17:cjc019_5544"
    INDEX 01 00:30:42
  TRACK 24 AUDIO
    TITLE "0:"
    INDEX 01 00:31:69
  TRACK 25 AUDIO
    TITLE "16:cjc019_5545"
    INDEX 01 00:33:48
  TRACK 26 AUDIO
    TITLE "0:"
    INDEX 01 00:35:06
  TRACK 27 AUDIO
    TITLE "18:cjc019_5546"
    INDEX 01 00:35:68
  TRACK 28 AUDIO
    TITLE "0:"
    INDEX 01 00:37:46
  TRACK 29 AUDIO
    TITLE "17:cjc019_5547"
    INDEX 01 00:38:26
  TRACK 30 AUDIO
    TITLE "0:"
    INDEX 01 00:39:60
  TRACK 31 AUDIO
    TITLE "16:cjc019_5548"
    INDEX 01 00:41:45
  TRACK 32 AUDIO
    TITLE "0:"
    INDEX 01 00:42:63
  TRACK 33 AUDIO
    TITLE "18:cjc019_5549"
    INDEX 01 00:43:42
  TRACK 34 AUDIO
    TITLE "0:"
    INDEX 01 00:44:60
  TRACK 35 AUDIO
    TITLE "17:cjc019_5550"
    INDEX 01 00:45:39
  TRACK 36 AUDIO
    TITLE "0:"
    INDEX 01 00:46:58
  TRACK 37 AUDIO
    TITLE "16:cjc019_5551"
    INDEX 01 00:48:44
  TRACK 38 AUDIO
    TITLE "0:"
    INDEX 01 00:50:03
  TRACK 39 AUDIO
    TITLE "18:cjc019_5552"
    INDEX 01 00:50:60
  TRACK 40 AUDIO
    TITLE "0:"
    INDEX 01 00:51:73
  TRACK 41 AUDIO
    TITLE "17:cjc019_5553"
    INDEX 01 00:52:43
  TRACK 42 AUDIO
    TITLE "0:"
    INDEX 01 00:54:09
  TRACK 43 AUDIO
    TITLE "16:cjc019_5554"
    INDEX 01 00:55:65
  TRACK 44 AUDIO
    TITLE "0:"
    INDEX 01 00:57:13
  TRACK 45 AUDIO
    TITLE "18:cjc019_5555"
    INDEX 01 00:57:70
  TRACK 46 AUDIO
    TITLE "0:"
    INDEX 01 01:00:23
  TRACK 47 AUDIO
    TITLE "17:cjc019_5556"
    INDEX 01 01:01:01
  TRACK 48 AUDIO
    TITLE "0:"
    INDEX 01 01:02:30
  TRACK 49 AUDIO
    TITLE "16:cjc019_5557"
    INDEX 01 01:04:09
  TRACK 50 AUDIO
    TITLE "0:"
    INDEX 01 01:05:38
  TRACK 51 AUDIO
    TITLE "18:cjc019_5558"
    INDEX 01 01:06:18
  TRACK 52 AUDIO
    TITLE "0:"
    INDEX 01 01:07:39
  TRACK 53 AUDIO
    TITLE "17:cjc019_5559"
    INDEX 01 01:08:13
  TRACK 54 AUDIO
    TITLE "0:"
    INDEX 01 01:09:44
  TRACK 55 AUDIO
    TITLE "16:cjc019_5560"
    INDEX 01 01:11:25
  TRACK 56 AUDIO
    TITLE "0:"
    INDEX 01 01:12:38
  TRACK 57 AUDIO
    TITLE "18:cjc019_5561"
    INDEX 01 01:13:24
  TRACK 58 AUDIO
    TITLE "0:"
    INDEX 01 01:16:24
  TRACK 59 AUDIO
    TITLE "17:cjc019_5562"
    INDEX 01 01:17:00
  TRACK 60 AUDIO
    TITLE "0:"
    INDEX 01 01:18:15
  TRACK 61 AUDIO
    TITLE "16:cjc019_5563"
    INDEX 01 01:19:68
  TRACK 62 AUDIO
    TITLE "0:"
    INDEX 01 01:21:47
  TRACK 63 AUDIO
    TITLE "18:cjc019_5564"
    INDEX 01 01:22:37
  TRACK 64 AUDIO
    TITLE "0:"
    INDEX 01 01:23:62
  TRACK 65 AUDIO
    TITLE "17:cjc019_5565"
    INDEX 01 01:24:41
  TRACK 66 AUDIO
    TITLE "0:"
    INDEX 01 01:26:23
  TRACK 67 AUDIO
    TITLE "16:cjc019_5566"
    INDEX 01 01:28:06
  TRACK 68 AUDIO
    TITLE "0:"
    INDEX 01 01:29:52
  TRACK 69 AUDIO
    TITLE "18:cjc019_5567"
    INDEX 01 01:30:38
  TRACK 70 AUDIO
    TITLE "0:"
    INDEX 01 01:31:59
  TRACK 71 AUDIO
    TITLE "17:cjc019_5568"
    INDEX 01 01:32:31
  TRACK 72 AUDIO
    TITLE "0:"
    INDEX 01 01:34:10
  TRACK 73 AUDIO
    TITLE "16:cjc019_5569"
    INDEX 01 01:35:63
  TRACK 74 AUDIO
    TITLE "0:"
    INDEX 01 01:37:19
  TRACK 75 AUDIO
    TITLE "18:cjc019_5570"
    INDEX 01 01:37:73
  TRACK 76 AUDIO
    TITLE "0:"
    INDEX 01 01:40:48
  TRACK 77 AUDIO
    TITLE "17:cjc019_5571"
    INDEX 01 01:41:20
  TRACK 78 AUDIO
    TITLE "0:"
    INDEX 01 01:42:53
  TRACK 79 AUDIO
    TITLE "16:cjc019_5572"
    INDEX 01 01:44:34
  TRACK 80 AUDIO
    TITLE "0:"
    INDEX 01 01:45:69
  TRACK 81 AUDIO
    TITLE "18:cjc019_5573"
    INDEX 01 01:46:47
  TRACK 82 AUDIO
    TITLE "0:"
    INDEX 01 01:49:12
  TRACK 83 AUDIO
    TITLE "17:cjc019_5574"
    INDEX 01 01:49:61
  TRACK 84 AUDIO
    TITLE "0:"
    INDEX 01 01:51:27
  TRACK 85 AUDIO
    TITLE "16:cjc019_5575"
    INDEX 01 01:53:06
  TRACK 86 AUDIO
    TITLE "0:"
    INDEX 01 01:54:33
  TRACK 87 AUDIO
    TITLE "18:cjc019_5576"
    INDEX 01 01:55:13
  TRACK 88 AUDIO
    TITLE "0:"
    INDEX 01 01:57:49
  TRACK 89 AUDIO
    TITLE "17:cjc019_5577"
    INDEX 01 01:58:29
  TRACK 90 AUDIO
    TITLE "0:"
    INDEX 01 01:59:59
  TRACK 91 AUDIO
    TITLE "16:cjc019_5578"
    INDEX 01 02:01:39
  TRACK 92 AUDIO
    TITLE "0:"
    INDEX 01 02:02:54
  TRACK 93 AUDIO
    TITLE "18:cjc019_5579"
    INDEX 01 02:03:47
  TRACK 94 AUDIO
    TITLE "0:"
    INDEX 01 02:07:45
  TRACK 95 AUDIO
    TITLE "17:cjc019_5580"
    INDEX 01 02:08:25
  TRACK 96 AUDIO
    TITLE "0:"
    INDEX 01 02:09:42
  TRACK 97 AUDIO
    TITLE "16:cjc019_5581"
    INDEX 01 02:11:31
  TRACK 98 AUDIO
    TITLE "0:"
    INDEX 01 02:12:44
  TRACK 99 AUDIO
    TITLE "18:cjc019_5582"
    INDEX 01 02:13:34
  TRACK 100 AUDIO
    TITLE "0:"
    INDEX 01 02:15:58
  TRACK 101 AUDIO
    TITLE "17:cjc019_5583"
    INDEX 01 02:16:38
  TRACK 102 AUDIO
    TITLE "0:"
    INDEX 01 02:17:51
  TRACK 103 AUDIO
    TITLE "16:cjc019_5584"
    INDEX 01 02:19:37
  TRACK 104 AUDIO
    TITLE "0:"
    INDEX 01 02:20:50
  TRACK 105 AUDIO
    TITLE "18:cjc019_5585"
    INDEX 01 02:21:37
  TRACK 106 AUDIO
    TITLE "0:"
    INDEX 01 02:23:56
  TRACK 107 AUDIO
    TITLE "17:cjc019_5586"
    INDEX 01 02:24:32
  TRACK 108 AUDIO
    TITLE "0:"
    INDEX 01 02:25:53
